<?xml version="1.0" encoding="UTF-8"?>
<svg xmlns="http://www.w3.org/2000/svg" xmlns:xlink="http://www.w3.org/1999/xlink" width="24px" height="24px" viewBox="0 0 24 24" version="1.1">
<g id="surface1">
<path style=" stroke:none;fill-rule:nonzero;fill:rgb(29.803922%,21.568627%,79.215686%);fill-opacity:1;" d="M 13.316406 5.5625 L 10.554688 5.574219 L 11.089844 10.746094 L 6.21875 8.695312 L 5.382812 11.355469 L 10.550781 12.460938 L 7.109375 16.546875 L 9.34375 18.210938 L 11.980469 13.511719 L 14.757812 18.152344 L 16.9375 16.433594 L 13.410156 12.519531 L 18.527344 11.367188 L 17.734375 8.675781 L 12.835938 10.777344 Z M 13.316406 5.5625 "/>
<path style=" stroke:none;fill-rule:evenodd;fill:rgb(29.803922%,21.568627%,79.215686%);fill-opacity:1;" d="M 13.796875 5.121094 L 13.339844 10.082031 L 18.015625 8.074219 L 19.078125 11.691406 L 14.238281 12.785156 L 17.578125 16.488281 L 14.640625 18.804688 L 11.992188 14.386719 L 9.484375 18.859375 L 6.476562 16.617188 L 9.742188 12.738281 L 4.820312 11.683594 L 5.945312 8.101562 L 10.574219 10.054688 L 10.070312 5.136719 Z M 11.089844 10.746094 L 6.21875 8.695312 L 5.382812 11.355469 L 10.550781 12.460938 L 7.109375 16.546875 L 9.34375 18.210938 L 11.980469 13.511719 L 14.757812 18.152344 L 16.9375 16.433594 L 13.410156 12.519531 L 18.527344 11.367188 L 17.734375 8.675781 L 12.835938 10.777344 L 13.316406 5.5625 L 10.554688 5.574219 Z M 11.089844 10.746094 "/>
<path style=" stroke:none;fill-rule:nonzero;fill:rgb(29.803922%,21.568627%,79.215686%);fill-opacity:1;" d="M 13.359375 5.375 L 10.511719 5.386719 L 11.0625 10.710938 L 6.042969 8.597656 L 5.183594 11.339844 L 10.507812 12.476562 L 6.964844 16.679688 L 9.265625 18.394531 L 11.980469 13.558594 L 14.84375 18.332031 L 17.089844 16.566406 L 13.453125 12.535156 L 18.726562 11.351562 L 17.910156 8.578125 L 12.863281 10.742188 Z M 13.359375 5.375 "/>
<path style=" stroke:none;fill-rule:evenodd;fill:rgb(29.803922%,21.568627%,79.215686%);fill-opacity:1;" d="M 13.851562 4.921875 L 13.382812 10.027344 L 18.199219 7.960938 L 19.296875 11.683594 L 14.308594 12.808594 L 17.75 16.621094 L 14.722656 19.003906 L 11.992188 14.457031 L 9.410156 19.0625 L 6.308594 16.757812 L 9.675781 12.761719 L 4.601562 11.675781 L 5.761719 7.988281 L 10.535156 10 L 10.011719 4.9375 Z M 11.0625 10.710938 L 6.042969 8.597656 L 5.183594 11.339844 L 10.507812 12.476562 L 6.964844 16.679688 L 9.265625 18.394531 L 11.980469 13.558594 L 14.84375 18.332031 L 17.089844 16.566406 L 13.453125 12.535156 L 18.730469 11.347656 L 17.910156 8.578125 L 12.863281 10.742188 L 13.359375 5.375 L 10.511719 5.386719 Z M 11.0625 10.710938 "/>
</g>
</svg>
